<?xml version="1.0" encoding="UTF-8"?>
<svg width="1200pt" height="1200pt" version="1.1" viewBox="0 0 1200 1200" xmlns="http://www.w3.org/2000/svg">
 <path d="m930.56 324.89-197.68 71.953-271.69-199.64c-24.75-18.188-56.672-22.734-85.453-12.281l-39.234 14.297c-14.719 5.3438-25.5 17.672-28.875 33-3.375 15.234 1.2188 30.891 12.188 41.859l200.34 200.26-248.21 90.328c-6.7031 2.4375-14.109 1.7344-20.203-1.9688l-92.578-56.391c-14.859-9.0469-32.766-10.781-49.078-4.875l-20.156 7.3125c-13.641 4.9688-23.859 15.797-28.031 29.719s-1.5938 28.547 7.0781 40.172l35.109 47.109-3.8906 1.4062c-29.531 10.734-44.766 43.453-34.031 72.984l1.6406 4.5469c6.4219 17.625 21.094 30.938 39.234 35.625l60.141 15.562c94.734 24.516 193.4 19.781 285.32-13.688l145.82-53.109-24.797 282.1c-1.3594 15.562 5.2031 30.562 17.578 40.078s28.547 12 43.219 6.6562l39.328-14.344c28.781-10.453 50.25-34.453 57.516-64.219l79.828-327.71 283.87-103.31c35.438-12.891 53.766-52.219 40.875-87.656-30.234-83.016-122.34-125.95-205.31-95.766zm-578.72-83.438 39.234-14.297c14.578-5.2969 30.844-2.9531 43.406 6.2812l247.55 181.87-115.22 41.906-214.97-215.81zm727.74 224.58-260.06 94.641c-2.3906-7.0312-7.8281-12.844-15.609-14.719-12.094-2.9531-24.281 4.4531-27.188 16.547l-89.203 366.19c-3.6562 15.094-14.578 27.281-29.156 32.578l-39.938 13.828 30.094-342.56c1.0781-12.375-8.0625-23.297-20.438-24.375s-23.297 8.1094-24.375 20.438l-0.9375 10.922-165.56 60.281c-83.344 30.328-172.78 34.641-258.66 12.422l-60.141-15.562c-3.7969-0.98438-6.8906-3.7969-8.25-7.4531l-1.6406-4.5469c-2.25-6.1875 0.9375-13.031 7.125-15.281l53.906-19.641c11.672-4.2656 17.719-17.156 13.453-28.828s-17.156-17.719-28.828-13.453l-5.7188 2.1094-43.031-58.547 20.156-7.3125c3.4219-1.2656 7.1719-0.89062 10.266 1.0312l92.578 56.391c17.859 10.875 39.328 12.984 58.969 5.8125l658.64-239.72c30.516-11.109 62.672-8.2969 89.812 4.9219l-66.938 24.375c-11.672 4.2656-17.719 17.156-13.453 28.828s17.156 17.719 28.828 13.453l91.875-33.422c7.125 9.1875 13.359 19.219 17.531 30.75 4.4062 12.141-1.875 25.594-13.969 30z" fill="#3d59ab"/>
 <path d="m901.92 452.9c0 30-45 30-45 0s45-30 45 0z" fill="#3d59ab"/>
 <path d="m815.68 484.31c0 30-45 30-45 0s45-30 45 0z" fill="#3d59ab"/>
 <path d="m729.37 515.72c0 30-45 30-45 0s45-30 45 0z" fill="#3d59ab"/>
 <path d="m643.13 547.13c0 30-45 30-45 0s45-30 45 0z" fill="#3d59ab"/>
 <path d="m556.87 578.53c0 30-45 30-45 0s45-30 45 0z" fill="#3d59ab"/>
 <path d="m470.58 609.89c0 30-45 30-45 0s45-30 45 0z" fill="#3d59ab"/>
 <path d="m384.32 641.29c0 30-45 30-45 0s45-30 45 0z" fill="#3d59ab"/>
</svg>

