<?xml version="1.0" encoding="UTF-8"?>
<svg width="1200pt" height="1200pt" version="1.1" viewBox="0 0 1200 1200" xmlns="http://www.w3.org/2000/svg">
 <path d="m539.06 569.53c0-8.3906 6.7969-15.234 15.234-15.234h30.469c8.4375 0 15.234 6.8438 15.234 15.234s-6.7969 15.234-15.234 15.234h-30.469c-8.4375 0-15.234-6.8438-15.234-15.234zm426.56 213.28c0 25.219-20.484 45.703-45.703 45.703s-45.703-20.484-45.703-45.703 20.484-45.703 45.703-45.703 45.703 20.484 45.703 45.703zm-30.469 0c0-8.3906-6.8438-15.234-15.234-15.234s-15.234 6.8438-15.234 15.234 6.8438 15.234 15.234 15.234 15.234-6.8438 15.234-15.234zm152.34 0c0 8.4375-6.7969 15.234-15.234 15.234h-46.922c-7.4531 51.609-51.797 91.406-105.42 91.406s-97.969-39.797-105.42-91.406h-429c-7.4531 51.609-51.797 91.406-105.42 91.406s-97.969-39.797-105.42-91.406h-46.922c-8.4375 0-15.234-6.7969-15.234-15.234v-91.406c0-210 170.86-380.86 380.86-380.86h125.86c40.688 0 79.031 17.906 105.19 49.125l104.16 124.5c7.2656 8.6719 17.391 14.344 28.594 15.938l3.5625 0.51562c116.77 16.688 207.52 110.16 220.74 227.29 0 0 2.0625 18.656 2.0625 18.703 2.5781 11.672 4.0312 23.719 4.0312 36.141zm-944.39-96.234c30.375-43.078 80.391-71.344 136.97-71.344 87.281 0 159.1 67.078 166.82 152.34h306.24c7.7344-85.266 79.547-152.34 166.82-152.34 41.531 0 79.5 15.281 108.8 40.406-32.719-66-96.234-113.95-172.36-124.82l-3.5625-0.51562c-18.656-2.6719-35.578-12.094-47.672-26.531l-104.11-124.5c-20.344-24.281-50.156-38.25-81.797-38.25h-125.86c-191.58 0-347.68 154.6-350.26 345.56zm213.14 96.234c0-42-34.172-76.172-76.172-76.172s-76.172 34.172-76.172 76.172 34.172 76.172 76.172 76.172 76.172-34.172 76.172-76.172zm60.094-15.234c-7.5938-68.484-65.812-121.87-136.26-121.87-70.445 0-128.68 53.391-136.26 121.87h30.844c7.4531-51.609 51.797-91.406 105.42-91.406s97.969 39.797 105.42 91.406zm579.74 15.234c0-42-34.172-76.172-76.172-76.172s-76.172 34.172-76.172 76.172 34.172 76.172 76.172 76.172 76.172-34.172 76.172-76.172zm60.094-15.234c-7.5938-68.484-65.812-121.87-136.26-121.87-70.445 0-128.68 53.391-136.26 121.87h30.844c7.4531-51.609 51.797-91.406 105.42-91.406s97.969 39.797 105.42 91.406zm-730.4 15.234c0 25.219-20.484 45.703-45.703 45.703s-45.703-20.484-45.703-45.703 20.484-45.703 45.703-45.703 45.703 20.484 45.703 45.703zm-30.469 0c0-8.3906-6.8438-15.234-15.234-15.234s-15.234 6.8438-15.234 15.234 6.8438 15.234 15.234 15.234 15.234-6.8438 15.234-15.234zm243.74-289.45v-76.172c0-25.172 20.484-45.703 45.656-45.703h34.5c22.594 0 43.922 9.9375 58.406 27.281l54.609 65.25c11.531 13.781 13.969 32.391 6.375 48.656s-23.484 26.344-41.391 26.344h-112.41c-25.219 0-45.703-20.484-45.703-45.703zm30.469-76.172v39.375l19.688-19.688c5.9531-5.9531 15.609-5.9531 21.562 0 5.9531 5.9531 5.9531 15.609 0 21.562l-40.172 40.172c2.1562 5.8125 7.6406 9.9844 14.156 9.9844h112.41c9 0 12.844-6.7031 13.828-8.7656 0.9375-2.0625 3.6562-9.3281-2.1094-16.219l-28.406-33.938-39.234 39.234c-2.9531 2.9531-6.8906 4.4531-10.781 4.4531-3.8906 0-7.7812-1.5-10.781-4.4531-5.9531-5.9531-5.9531-15.609 0-21.562l41.156-41.156-6.5625-7.875c-8.7188-10.406-21.469-16.359-35.062-16.359h-34.453c-8.3906 0-15.234 6.8438-15.234 15.234zm-265.36 121.87h158.72c25.219 0 45.703-20.484 45.703-45.703v-69.984c0-0.375-0.046875-2.1562-0.42188-8.25-0.98438-11.672-6.1406-22.641-14.906-30.516-9.5156-8.5312-22.172-12.609-34.688-11.25-32.203 3.5156-63.609 11.906-93.281 24.891-7.6875 3.375-11.203 12.375-7.8281 20.062s12.328 11.203 20.062 7.8281c26.812-11.766 55.172-19.359 84.328-22.5 5.25-0.65625 9.1875 2.0156 11.016 3.6562 1.5938 1.4062 2.8125 3.1875 3.7031 5.0625l-54.984 54.984c-5.9531 5.9531-5.9531 15.609 0 21.562 2.9531 2.9531 6.8906 4.4531 10.781 4.4531s7.7812-1.5 10.781-4.4531l34.922-34.922v39.375c0 8.3906-6.8438 15.234-15.234 15.234h-100.31l34.922-34.922c5.9531-5.9531 5.9531-15.609 0-21.562-5.9531-5.9531-15.609-5.9531-21.562 0l-56.484 56.484h-15.328c-9.5156 0-13.172-7.2188-14.062-9.4219-0.9375-2.2969-3.375-10.359 3.8438-17.203 12.422-11.859 25.969-22.641 40.219-32.109 7.0312-4.6406 8.9531-14.109 4.3125-21.094-4.6406-7.0312-14.109-8.9531-21.094-4.3125-15.75 10.453-30.703 22.359-44.438 35.438-13.781 13.125-18.141 33-11.062 50.578 7.0781 17.625 23.297 28.594 42.328 28.594z" fill="#cd3600"/>
</svg>

