<?xml version="1.0" encoding="UTF-8"?>
<svg width="1200pt" height="1200pt" version="1.1" viewBox="0 0 1200 1200" xmlns="http://www.w3.org/2000/svg">
 <path d="m135 810c-8.25 0-15 6.75-15 15s6.75 15 15 15h885c8.25 0 15-6.75 15-15v-157.5c0-57-20.25-111.75-57-155.26l-80.25-94.5c-27-31.5-66.75-50.25-108.75-50.25h-189v-22.5c0-24.75-20.25-45-45-45h-202.5c-24.75 0-45 20.25-45 45v22.5h-172.5c-8.25 0-15 6.75-15 15s6.75 15 15 15h653.26c33 0 64.5 14.25 85.5 39.75l80.25 94.5c29.25 33.75 46.5 76.5 49.5 120.74h-141c-33 0-60-27-60-60v-112.5c0-8.25-6.75-15-15-15s-15 6.75-15 15v112.5c0 49.5 40.5 90 90 90h142.5v37.5h-45c-8.25 0-15 6.75-15 15s6.75 15 15 15h45v60h-277.5v-300c0-24.75-20.25-45-45-45h-157.5c-1.5 0-2.25 0-3.75 0.75-1.5-0.75-2.25-0.75-3.75-0.75h-352.5c-24.75 0-45 20.25-45 45v127.5c0 24.75 20.25 45 45 45h315v127.5zm202.5-442.5v-22.5c0-8.25 6.75-15 15-15h202.5c8.25 0 15 6.75 15 15v22.5zm172.5 165c0-8.25-6.75-15-15-15s-15 6.75-15 15v120h-165v-120c0-8.25-6.75-15-15-15s-15 6.75-15 15v120h-120c-8.25 0-15-6.75-15-15v-127.5c0-8.25 6.75-15 15-15h352.5c1.5 0 2.25 0 3.75-0.75 1.5 0 2.25 0.75 3.75 0.75h157.5c8.25 0 15 6.75 15 15v300h-187.5z" fill="#00688b"/>
 <path d="m1065 870h-930c-8.25 0-15 6.75-15 15s6.75 15 15 15h930c8.25 0 15-6.75 15-15s-6.75-15-15-15z" fill="#00688b"/>
</svg>
